<?xml version="1.0" standalone="no"?>
<!DOCTYPE svg PUBLIC "-//W3C//DTD SVG 20010904//EN"
 "http://www.w3.org/TR/2001/REC-SVG-20010904/DTD/svg10.dtd">
<svg version="1.0" xmlns="http://www.w3.org/2000/svg"
 width="24.000000pt" height="24.000000pt" viewBox="0 0 24.000000 24.000000"
 preserveAspectRatio="xMidYMid meet">

<g transform="translate(0.000000,24.000000) scale(0.100000,-0.100000)"
fill="#000000" stroke="none">
<path d="M87 211 c-6 -16 -18 -32 -27 -34 -13 -3 -19 -22 -24 -81 -4 -42 -4
-81 -1 -86 8 -13 162 -13 170 0 3 5 3 44 -1 86 -5 59 -11 78 -24 81 -9 2 -21
18 -27 34 -8 20 -18 29 -33 29 -15 0 -25 -9 -33 -29z m53 -11 c0 -13 -7 -20
-20 -20 -13 0 -20 7 -20 20 0 13 7 20 20 20 13 0 20 -7 20 -20z m-60 -45 c0
-8 5 -15 10 -15 6 0 10 7 10 15 0 8 9 15 20 15 11 0 20 -7 20 -15 0 -8 5 -15
10 -15 6 0 10 7 10 15 0 8 4 15 9 15 11 0 19 -38 23 -105 l2 -50 -74 0 -74 0
2 50 c4 67 12 105 23 105 5 0 9 -7 9 -15z"/>
</g>
</svg>
